HIERARCHY
ROOT Hips
{
 OFFSET 0.000000 0.000000 0.000000
 CHANNELS 6 Xposition Yposition Zposition Yrotation Xrotation Zrotation
 JOINT Chest
 {
  OFFSET 0.000000 9.585900 0.002600
  CHANNELS 3 Yrotation Xrotation Zrotation
  JOINT Chest2
  {
   OFFSET 0.000000 9.601200 -0.005300
   CHANNELS 3 Yrotation Xrotation Zrotation
   JOINT Chest3
   {
    OFFSET 0.000000 9.561800 0.000000
    CHANNELS 3 Yrotation Xrotation Zrotation
    JOINT Chest4
    {
     OFFSET 0.000000 9.552100 0.000000
     CHANNELS 3 Yrotation Xrotation Zrotation
     JOINT Neck
     {
      OFFSET 0.000000 14.453000 0.000000
      CHANNELS 3 Yrotation Xrotation Zrotation
      JOINT Head
      {
       OFFSET 0.000000 8.936500 -0.011300
       CHANNELS 3 Yrotation Xrotation Zrotation
       End Site
       {
        OFFSET 0.000000 17.073600 -0.006000
       }
      }
     }
     JOINT RightCollar
     {
      OFFSET -2.921100 9.558500 0.000000
      CHANNELS 3 Yrotation Xrotation Zrotation
      JOINT RightShoulder
      {
       OFFSET -13.519700 0.000000 0.000000
       CHANNELS 3 Yrotation Xrotation Zrotation
       JOINT RightElbow
       {
        OFFSET 0.000000 -29.696600 0.000000
        CHANNELS 3 Yrotation Xrotation Zrotation
        JOINT RightWrist
        {
         OFFSET 0.000000 -24.004700 0.000000
         CHANNELS 3 Yrotation Xrotation Zrotation
         End Site
         {
          OFFSET 0.000000 -17.728500 0.000000
         }
        }
       }
      }
     }
     JOINT LeftCollar
     {
      OFFSET 2.921100 9.558500 0.000000
      CHANNELS 3 Yrotation Xrotation Zrotation
      JOINT LeftShoulder
      {
       OFFSET 13.519700 0.000000 0.000000
       CHANNELS 3 Yrotation Xrotation Zrotation
       JOINT LeftElbow
       {
        OFFSET 0.000000 -29.696600 0.000000
        CHANNELS 3 Yrotation Xrotation Zrotation
        JOINT LeftWrist
        {
         OFFSET 0.000000 -24.004700 0.000000
         CHANNELS 3 Yrotation Xrotation Zrotation
         End Site
         {
          OFFSET 0.000000 -17.728500 0.000000
         }
        }
       }
      }
     }
    }
   }
  }
 }
 JOINT RightHip
 {
  OFFSET -7.771700 -0.012900 -0.001300
  CHANNELS 3 Yrotation Xrotation Zrotation
  JOINT RightKnee
  {
   OFFSET 0.000000 -40.869800 0.001200
   CHANNELS 3 Yrotation Xrotation Zrotation
   JOINT RightAnkle
   {
    OFFSET 0.000000 -39.717900 0.002100
    CHANNELS 3 Yrotation Xrotation Zrotation
    JOINT RightToe
    {
     OFFSET 0.000000 -4.965400 11.033500
     CHANNELS 3 Yrotation Xrotation Zrotation
     End Site
     {
      OFFSET 0.000000 -1.423100 5.872300
     }
    }
   }
  }
 }
 JOINT LeftHip
 {
  OFFSET 7.771700 -0.012900 -0.001300
  CHANNELS 3 Yrotation Xrotation Zrotation
  JOINT LeftKnee
  {
   OFFSET 0.000000 -40.869800 0.001200
   CHANNELS 3 Yrotation Xrotation Zrotation
   JOINT LeftAnkle
   {
    OFFSET 0.000000 -39.717900 0.002100
    CHANNELS 3 Yrotation Xrotation Zrotation
    JOINT LeftToe
    {
     OFFSET 0.000000 -4.965400 11.033500
     CHANNELS 3 Yrotation Xrotation Zrotation
     End Site
     {
      OFFSET 0.000000 -1.423100 5.872300
     }
    }
   }
  }
 }
}
MOTION
Frames: 7
Frame Time: 0.008333
0.000000 85.388000 0.000000 0.000000 -5.767877 0.000000 0.000000 11.653817 0.000000 0.000000 -5.885947 0.000000 0.000000 -0.000000 0.000000 0.000000 -0.000000 0.000000 0.000000 12.528835 0.000000 0.000000 0.711642 0.000000 0.000000 -0.000000 0.000000 0.000000 0.000000 -90.000000 0.000000 -2.309062 0.000000 0.000000 2.309062 0.000000 0.000000 -0.000000 0.000000 0.000000 -0.000000 90.000000 0.000000 -2.309062 0.000000 0.000000 2.309062 0.000000 0.000000 8.520406 0.000000 0.000000 1.905762 0.000000 -0.000000 -4.658285 0.000000 0.000000 -0.000000 0.000000 0.000000 8.520406 0.000000 0.000000 1.905762 0.000000 -0.000000 -4.658285 0.000000 0.000000 -0.000000 0.000000
-70.692897 50.391587 -4.904171 165.181555 -5.791369 -0.039428 2.221428 5.280735 0.780359 0.079196 0.182943 -0.009547 0.111931 0.319827 0.003045 1.961295 5.134303 0.001472 2.482766 17.974164 0.016681 4.562536 -2.380274 -0.784484 2.741035 7.000611 1.029318 -10.952051 -11.482248 -9.720376 -63.689324 -70.882359 88.160883 -4.656837 -4.988139 -20.925412 -4.011713 2.713838 -0.643119 23.242284 -4.497111 4.750620 70.545033 -72.843197 -96.064398 1.122753 7.881097 11.930135 -1.805902 -74.594048 -4.069702 -127.641518 80.576032 -126.569711 -2.770832 -16.959145 1.250247 -0.302287 0.815943 -0.124859 -6.077752 -78.547086 23.139369 120.087359 79.441411 116.438599 -17.140966 -21.851100 1.421232 -0.318596 -1.105439 -0.159145
-70.693958 50.391553 -4.904109 165.198564 -5.795193 -0.039055 2.214689 5.285861 0.772465 0.076469 0.182194 -0.008085 0.114677 0.321189 0.000974 1.963309 5.136713 -0.005969 2.483682 17.984912 0.018595 4.563347 -2.360306 -0.780834 2.735981 6.998309 1.032587 -10.951747 -11.478845 -9.713108 -63.718881 -70.887422 88.195436 -4.658122 -4.991112 -20.946603 -4.019705 2.721439 -0.634279 23.216605 -4.502004 4.751772 70.484103 -72.732467 -96.004491 1.311883 7.606693 12.290872 -1.801075 -74.589610 -4.085859 -127.630867 80.569580 -126.560747 -2.771392 -16.960472 1.254093 -0.300668 0.815884 -0.124628 -6.095762 -78.544419 23.138055 120.023350 79.428432 116.375183 -17.160243 -21.821345 1.420022 -0.318164 -1.105301 -0.156076
-70.695576 50.391351 -4.903552 165.209222 -5.796691 -0.036946 2.213672 5.287535 0.763116 0.078552 0.183290 -0.009675 0.113087 0.320690 0.001856 1.965074 5.140642 -0.014030 2.483812 17.997650 0.022249 4.562143 -2.336830 -0.773611 2.728199 6.994069 1.043161 -10.948019 -11.478513 -9.713904 -63.761508 -70.891071 88.246463 -4.645076 -4.996923 -21.021722 -4.031838 2.732876 -0.622794 23.198094 -4.509992 4.741849 70.463667 -72.682376 -95.974334 1.568580 7.362623 12.631512 -1.796469 -74.588007 -4.099571 -127.621334 80.565369 -126.552525 -2.768102 -16.963148 1.253761 -0.299343 0.817851 -0.124942 -6.097920 -78.543514 23.128934 119.955678 79.420059 116.310968 -17.195484 -21.794526 1.419250 -0.321898 -1.106884 -0.153116
-70.696125 50.391035 -4.902730 165.231491 -5.799803 -0.044198 2.214434 5.292511 0.755248 0.071390 0.183256 -0.005679 0.122383 0.322665 -0.005870 1.951303 5.142297 -0.011510 2.483391 18.012191 0.027376 4.559326 -2.310030 -0.763543 2.722368 6.988249 1.054264 -10.946871 -11.479532 -9.713453 -63.773167 -70.889420 88.260908 -4.635985 -5.002898 -21.066865 -4.039531 2.741298 -0.613068 23.182486 -4.516980 4.723222 70.339516 -72.528137 -95.848898 1.712035 7.129643 12.952062 -1.817687 -74.585541 -4.096196 -127.622391 80.561093 -126.549744 -2.766898 -16.954503 1.243816 -0.299571 0.809005 -0.117031 -6.152551 -78.539873 23.160115 119.886687 79.414101 116.245506 -17.219498 -21.775605 1.414538 -0.320326 -1.111662 -0.150306
-70.698135 50.390566 -4.902100 165.249928 -5.803467 -0.044148 2.199531 5.296489 0.752002 0.073500 0.184123 -0.008089 0.126655 0.324497 -0.011129 1.948225 5.146749 -0.019634 2.483145 18.028933 0.034235 4.556207 -2.279188 -0.750332 2.720213 6.983828 1.057339 -10.950923 -11.480983 -9.699440 -63.779181 -70.905768 88.289050 -4.644644 -5.005257 -21.120564 -4.044975 2.748842 -0.612566 23.174885 -4.528120 4.702405 70.202767 -72.374653 -95.705464 1.838243 6.923198 13.235843 -1.799624 -74.582422 -4.128893 -127.636572 80.558966 -126.565910 -2.755109 -16.950688 1.250506 -0.313227 0.805756 -0.121530 -6.216696 -78.534560 23.190384 119.815230 79.398121 116.167858 -17.196458 -21.746407 1.401285 -0.308797 -1.111737 -0.147844
-70.699554 50.390098 -4.902564 165.265611 -5.816191 -0.047509 2.192791 5.311997 0.746024 0.069180 0.182788 -0.003751 0.130953 0.325600 -0.017004 1.945649 5.151108 -0.027386 2.483544 18.033983 0.047778 4.550474 -2.228297 -0.737265 2.718529 6.976002 1.037458 -10.956512 -11.473400 -9.663001 -63.785407 -70.912318 88.304924 -4.649204 -5.006167 -21.143670 -4.047527 2.748301 -0.605397 23.173221 -4.531376 4.682109 70.108685 -72.250747 -95.599293 1.982181 6.748690 13.483630 -1.778847 -74.571053 -4.158294 -127.664602 80.554538 -126.591707 -2.751845 -16.944080 1.255701 -0.317614 0.801743 -0.127705 -6.266017 -78.521579 23.210763 119.767002 79.386042 116.115808 -17.166452 -21.722891 1.394602 -0.283154 -1.095332 -0.143767
